<svg width="960" height="700"><g transform="translate(480,360)"><g><path d="M0,70A70,70 0 1,1 0,-70A70,70 0 1,1 0,70Z" style="fill: rgb(204, 204, 204);"/><text x="0" fill-opacity="0.8" font-size="14" style="text-anchor: middle;">G</text></g><g><path d="M-98.04247130188904,-99.93835010154142A140,140 0 0,1 -2.5717582782094416e-14,-140L-1.2858791391047208e-14,-70A70,70 0 0,0 -49.02123565094452,-49.96917505077071Z" style="fill: rgb(171, 177, 80);"/><text x="105.00000000000001" fill-opacity="0.8" font-size="14" style="text-anchor: middle;" transform="rotate(247.774325898661)">45</text></g><g><path d="M-147.06370695283357,-149.90752515231213A210.00000000000003,210.00000000000003 0 0,1 -35.42047264654001,-206.99128029338755L-23.61364843102667,-137.99418686225835A140,140 0 0,0 -98.04247130188904,-99.93835010154142Z" style="fill: rgb(171, 142, 29);"/><text x="175" fill-opacity="0.8" font-size="14" style="text-anchor: middle;" transform="rotate(242.91910783933002)">451</text></g><g><path d="M-196.08494260377807,-199.87670020308283A280,280 0 0,1 -63.72643793039752,-272.6516845880531L-47.794828447798146,-204.48876344103985A210.00000000000003,210.00000000000003 0 0,0 -147.06370695283357,-149.90752515231213Z" style="fill: rgb(147, 116, 0);"/><text x="245.00000000000003" fill-opacity="0.8" font-size="14" style="text-anchor: middle;" transform="rotate(241.19658263967446)">4511</text></g><g><path d="M-128.73012048492825,-325.4666743000516A350,350 0 0,1 -79.65804741299691,-340.8146057350664L-63.72643793039752,-272.6516845880531A280,280 0 0,0 -102.9840963879426,-260.37333944004126Z" style="fill: rgb(123, 91, 0);"/><text x="315" fill-opacity="0.8" font-size="14" style="text-anchor: middle;" transform="rotate(252.63224542860522)">45111</text></g><g><path d="M-245.1061782547226,-249.84587525385354A350,350 0 0,1 -128.73012048492825,-325.4666743000516L-102.9840963879426,-260.37333944004126A280,280 0 0,0 -196.08494260377807,-199.87670020308283Z" style="fill: rgb(122, 91, 0);"/><text x="315" fill-opacity="0.8" font-size="14" style="text-anchor: middle;" transform="rotate(236.98431458625285)">45112</text></g><g><path d="M-63.72643793039752,-272.6516845880531A280,280 0 0,1 -47.22729686205334,-275.9883737245167L-35.42047264654001,-206.99128029338755A210.00000000000003,210.00000000000003 0 0,0 -47.794828447798146,-204.48876344103985Z" style="fill: rgb(144, 117, 0);"/><text x="245.00000000000003" fill-opacity="0.8" font-size="14" style="text-anchor: middle;" transform="rotate(258.56703868168233)">4519</text></g><g><path d="M-12.275693389386987,-209.64090095162675A210.00000000000003,210.00000000000003 0 0,1 -5.284318124104212,-209.93350371477933L-3.5228787494028078,-139.9556691431862A140,140 0 0,0 -8.183795592924657,-139.7606006344178Z" style="fill: rgb(134, 154, 27);"/><text x="175" fill-opacity="0.8" font-size="14" style="text-anchor: middle;" transform="rotate(267.6034578823847)">452</text></g><g><path d="M-35.42047264654001,-206.99128029338755A210.00000000000003,210.00000000000003 0 0,1 -12.275693389386987,-209.64090095162675L-8.183795592924657,-139.7606006344178A140,140 0 0,0 -23.61364843102667,-137.99418686225835Z" style="fill: rgb(154, 148, 12);"/><text x="175" fill-opacity="0.8" font-size="14" style="text-anchor: middle;" transform="rotate(263.46919479291535)">453</text></g><g><path d="M-5.284318124104212,-209.93350371477933A210.00000000000003,210.00000000000003 0 0,1 -4.116113104471943e-13,-210.00000000000003L-2.744075402981295e-13,-140A140,140 0 0,0 -3.5228787494028078,-139.9556691431862Z" style="fill: rgb(109, 158, 52);"/><text x="175" fill-opacity="0.8" font-size="14" style="text-anchor: middle;" transform="rotate(269.27904503013826)">454</text></g><g><path d="M8.572527594031473e-15,-140A140,140 0 1,1 -131.10668518147415,49.10231258022202L-65.55334259073707,24.55115629011101A70,70 0 1,0 4.2862637970157365e-15,-70Z" style="fill: rgb(233, 142, 199);"/><text x="105.00000000000001" fill-opacity="0.8" font-size="14" style="text-anchor: middle;" transform="rotate(34.73398956556974)">46</text></g><g><path d="M-135.52789700195345,160.4125591536645A210.00000000000003,210.00000000000003 0 0,1 -193.04806299556844,82.65860737793156L-128.6987086637123,55.105738251954364A140,140 0 0,0 -90.35193133463562,106.94170610244298Z" style="fill: rgb(214, 114, 142);"/><text x="175" fill-opacity="0.8" font-size="14" style="text-anchor: middle;" transform="rotate(143.5070153814983)">462</text></g><g><path d="M-180.70386266927125,213.88341220488596A280,280 0 0,1 -243.23611350522685,138.69460366889692L-182.42708512892017,104.02095275167271A210.00000000000003,210.00000000000003 0 0,0 -135.52789700195345,160.4125591536645Z" style="fill: rgb(190, 83, 118);"/><text x="245.00000000000003" fill-opacity="0.8" font-size="14" style="text-anchor: middle;" transform="rotate(140.25073024127508)">4621</text></g><g><path d="M-243.23611350522685,138.69460366889692A280,280 0 0,1 -257.3974173274245,110.21147650390897L-193.0480629955684,82.65860737793173A210.00000000000003,210.00000000000003 0 0,0 -182.42708512892017,104.02095275167271Z" style="fill: rgb(190, 84, 115);"/><text x="245.00000000000003" fill-opacity="0.8" font-size="14" style="text-anchor: middle;" transform="rotate(153.56425279011262)">4622</text></g><g><path d="M65.2921229282058,199.59193040683803A210.00000000000003,210.00000000000003 0 0,1 -46.145794457657814,204.8671902815861L-30.76386297177187,136.57812685439072A140,140 0 0,0 43.52808195213719,133.061286937892Z" style="fill: rgb(206, 111, 184);"/><text x="175" fill-opacity="0.8" font-size="14" style="text-anchor: middle;" transform="rotate(87.28974960744256)">463</text></g><g><path d="M33.08399286044145,278.0385754106978A280,280 0 0,1 -11.675323540744733,279.75647770912997L-8.756492655558551,209.8173582818475A210.00000000000003,210.00000000000003 0 0,0 24.812994645331088,208.52893155802334Z" style="fill: rgb(185, 79, 160);"/><text x="245.00000000000003" fill-opacity="0.8" font-size="14" style="text-anchor: middle;" transform="rotate(87.80201597244499)">4631</text></g><g><path d="M-42.31592658249273,276.7839633314493A280,280 0 0,1 -61.527725943543984,273.1562537087814L-46.14579445765799,204.86719028158606A210.00000000000003,210.00000000000003 0 0,0 -31.736944936869552,207.58797249858702Z" style="fill: rgb(184, 79, 162);"/><text x="245.00000000000003" fill-opacity="0.8" font-size="14" style="text-anchor: middle;" transform="rotate(100.69309605416449)">4634</text></g><g><path d="M-11.675323540744733,279.75647770912997A280,280 0 0,1 -42.31592658249273,276.7839633314493L-31.736944936869552,207.58797249858702A210.00000000000003,210.00000000000003 0 0,0 -8.756492655558551,209.8173582818475Z" style="fill: rgb(185, 79, 161);"/><text x="245.00000000000003" fill-opacity="0.8" font-size="14" style="text-anchor: middle;" transform="rotate(95.54105391122289)">4638</text></g><g><path d="M87.05616390427438,266.122573875784A280,280 0 0,1 33.08399286044145,278.0385754106978L24.812994645331088,208.52893155802334A210.00000000000003,210.00000000000003 0 0,0 65.2921229282058,199.59193040683803Z" style="fill: rgb(184, 79, 163);"/><text x="245.00000000000003" fill-opacity="0.8" font-size="14" style="text-anchor: middle;" transform="rotate(77.54993499586335)">4639</text></g><g><path d="M169.38588265787752,124.13066807284878A210.00000000000003,210.00000000000003 0 0,1 65.2921229282058,199.59193040683803L43.52808195213719,133.061286937892A140,140 0 0,0 112.92392177191833,82.7537787152325Z" style="fill: rgb(214, 112, 154);"/><text x="175" fill-opacity="0.8" font-size="14" style="text-anchor: middle;" transform="rotate(54.06031033143667)">464</text></g><g><path d="M125.63968305165669,250.22923498799906A280,280 0 0,1 95.91759403987261,263.05857741879885L71.93819552990446,197.29393306409918A210.00000000000003,210.00000000000003 0 0,0 94.22976228874253,187.6719262409993Z" style="fill: rgb(191, 80, 131);"/><text x="245.00000000000003" fill-opacity="0.8" font-size="14" style="text-anchor: middle;" transform="rotate(66.65287791041249)">4642</text></g><g><path d="M157.1168587158272,231.7634412655948A280,280 0 0,1 125.63968305165669,250.22923498799906L94.22976228874253,187.6719262409993A210.00000000000003,210.00000000000003 0 0,0 117.8376440368704,173.82258094919612Z" style="fill: rgb(191, 81, 128);"/><text x="245.00000000000003" fill-opacity="0.8" font-size="14" style="text-anchor: middle;" transform="rotate(59.6023772941395)">4643</text></g><g><path d="M225.84784354383666,165.507557430465A280,280 0 0,1 157.1168587158272,231.7634412655948L117.8376440368704,173.82258094919612A210.00000000000003,210.00000000000003 0 0,0 169.38588265787752,124.13066807284878Z" style="fill: rgb(191, 80, 130);"/><text x="245.00000000000003" fill-opacity="0.8" font-size="14" style="text-anchor: middle;" transform="rotate(46.050449963698995)">4646</text></g><g><path d="M95.91759403987261,263.05857741879885A280,280 0 0,1 87.05616390427429,266.12257387578404L65.29212292820571,199.59193040683806A210.00000000000003,210.00000000000003 0 0,0 71.93819552990446,197.29393306409918Z" style="fill: rgb(190, 81, 127);"/><text x="245.00000000000003" fill-opacity="0.8" font-size="14" style="text-anchor: middle;" transform="rotate(70.92626673645468)">4647</text></g><g><path d="M209.48272785469757,-14.730469461450582A210.00000000000003,210.00000000000003 0 0,1 169.38588265787752,124.13066807284878L112.92392177191833,82.7537787152325A140,140 0 0,0 139.6551519031317,-9.820312974300386Z" style="fill: rgb(201, 113, 192);"/><text x="175" fill-opacity="0.8" font-size="14" style="text-anchor: middle;" transform="rotate(16.106336637006766)">465</text></g><g><path d="M279.3103038062634,-19.64062594860077A280,280 0 0,1 246.85659071681616,132.1431936184014L185.14244303761214,99.10739521380107A210.00000000000003,210.00000000000003 0 0,0 209.48272785469757,-14.730469461450582Z" style="fill: rgb(180, 81, 169);"/><text x="245.00000000000003" fill-opacity="0.8" font-size="14" style="text-anchor: middle;" transform="rotate(12.068988805781142)">4651</text></g><g><path d="M246.85659071681616,132.1431936184014A280,280 0 0,1 225.84784354383666,165.507557430465L169.38588265787752,124.13066807284878A210.00000000000003,210.00000000000003 0 0,0 185.14244303761214,99.10739521380107Z" style="fill: rgb(178, 82, 171);"/><text x="245.00000000000003" fill-opacity="0.8" font-size="14" style="text-anchor: middle;" transform="rotate(32.19764634372838)">4652</text></g><g><path d="M-46.145794457657814,204.8671902815861A210.00000000000003,210.00000000000003 0 0,1 -135.52789700195345,160.4125591536645L-90.35193133463562,106.94170610244298A140,140 0 0,0 -30.76386297177187,136.57812685439072Z" style="fill: rgb(213, 111, 165);"/><text x="175" fill-opacity="0.8" font-size="14" style="text-anchor: middle;" transform="rotate(116.44368277981322)">466</text></g><g><path d="M1.2858791391047211e-14,-210.00000000000003A210.00000000000003,210.00000000000003 0 0,1 209.48272785469757,-14.730469461450582L139.6551519031317,-9.820312974300386A140,140 0 0,0 8.572527594031473e-15,-140Z" style="fill: rgb(194, 116, 199);"/><text x="175" fill-opacity="0.8" font-size="14" style="text-anchor: middle;" transform="rotate(-47.01116045047023)">467</text></g><g><path d="M1.7145055188062946e-14,-280A280,280 0 0,1 230.43432867180772,-159.0598006083665L172.8257465038558,-119.29485045627489A210.00000000000003,210.00000000000003 0 0,0 1.2858791391047211e-14,-210.00000000000003Z" style="fill: rgb(173, 84, 177);"/><text x="245.00000000000003" fill-opacity="0.8" font-size="14" style="text-anchor: middle;" transform="rotate(-62.30790011312408)">4671</text></g><g><path d="M270.5745275797664,-72.03766393343275A280,280 0 0,1 276.22433782484853,-45.82701379343809L207.1682533686364,-34.37026034507857A210.00000000000003,210.00000000000003 0 0,0 202.93089568482486,-54.02824795007457Z" style="fill: rgb(171, 85, 179);"/><text x="245.00000000000003" fill-opacity="0.8" font-size="14" style="text-anchor: middle;" transform="rotate(-12.16421564489169)">4672</text></g><g><path d="M230.43432867180772,-159.0598006083665A280,280 0 0,1 256.96873255954057,-111.20733108362646L192.72654941965544,-83.40549831271986A210.00000000000003,210.00000000000003 0 0,0 172.8257465038558,-119.29485045627489Z" style="fill: rgb(173, 84, 177);"/><text x="245.00000000000003" fill-opacity="0.8" font-size="14" style="text-anchor: middle;" transform="rotate(-29.00856028500515)">4673</text></g><g><path d="M256.96873255954057,-111.20733108362646A280,280 0 0,1 270.5745275797664,-72.03766393343275L202.93089568482486,-54.02824795007457A210.00000000000003,210.00000000000003 0 0,0 192.72654941965544,-83.40549831271986Z" style="fill: rgb(170, 86, 179);"/><text x="245.00000000000003" fill-opacity="0.8" font-size="14" style="text-anchor: middle;" transform="rotate(-19.15494622385061)">4675</text></g><g><path d="M276.22433782484853,-45.82701379343809A280,280 0 0,1 279.3103038062634,-19.64062594860077L209.48272785469757,-14.730469461450582A210.00000000000003,210.00000000000003 0 0,0 207.1682533686364,-34.37026034507857Z" style="fill: rgb(172, 85, 178);"/><text x="245.00000000000003" fill-opacity="0.8" font-size="14" style="text-anchor: middle;" transform="rotate(-6.721090043392383)">4677</text></g><g><path d="M-193.04806299556844,82.65860737793156A210.00000000000003,210.00000000000003 0 0,1 -196.66002777221124,73.65346887033304L-131.10668518147415,49.10231258022202A140,140 0 0,0 -128.6987086637123,55.105738251954364Z" style="fill: rgb(210, 111, 175);"/><text x="175" fill-opacity="0.8" font-size="14" style="text-anchor: middle;" transform="rotate(158.14425853073766)">469</text></g><g><path d="M-131.10668518147415,49.10231258022202A140,140 0 0,1 -98.04247130188904,-99.93835010154142L-49.02123565094452,-49.96917505077071A70,70 0 0,0 -65.55334259073707,24.55115629011101Z" style="fill: rgb(0, 188, 210);"/><text x="105.00000000000001" fill-opacity="0.8" font-size="14" style="text-anchor: middle;" transform="rotate(192.50831546423083)">47</text></g><g><path d="M-196.66002777221124,73.65346887033304A210.00000000000003,210.00000000000003 0 0,1 -209.81474277987417,-8.818940538139938L-139.87649518658276,-5.879293692093292A140,140 0 0,0 -131.10668518147415,49.10231258022202Z" style="fill: rgb(0, 168, 156);"/><text x="175" fill-opacity="0.8" font-size="14" style="text-anchor: middle;" transform="rotate(170.93741030273353)">471</text></g><g><path d="M-262.2133703629483,98.20462516044404A280,280 0 0,1 -279.99559729345594,-1.5701898868771738L-209.996697970092,-1.1776424151578804A210.00000000000003,210.00000000000003 0 0,0 -196.66002777221124,73.65346887033304Z" style="fill: rgb(0, 144, 130);"/><text x="245.00000000000003" fill-opacity="0.8" font-size="14" style="text-anchor: middle;" transform="rotate(169.89464264609043)">4711</text></g><g><path d="M-279.99559729345594,-1.5701898868771738A280,280 0 0,1 -279.7529903731655,-11.758587384186583L-209.81474277987417,-8.818940538139938A210.00000000000003,210.00000000000003 0 0,0 -209.996697970092,-1.1776424151578804Z" style="fill: rgb(0, 144, 133);"/><text x="245.00000000000003" fill-opacity="0.8" font-size="14" style="text-anchor: middle;" transform="rotate(181.3640738176845)">4719</text></g><g><path d="M-174.27514571570845,-117.16728888972635A210.00000000000003,210.00000000000003 0 0,1 -166.1716203750851,-128.4016844979793L-110.78108025005672,-85.60112299865285A140,140 0 0,0 -116.18343047713896,-78.11152592648422Z" style="fill: rgb(0, 165, 179);"/><text x="175" fill-opacity="0.8" font-size="14" style="text-anchor: middle;" transform="rotate(215.8034342445168)">472</text></g><g><path d="M-185.6869270069537,-98.0834600669973A210.00000000000003,210.00000000000003 0 0,1 -174.27514571570845,-117.16728888972635L-116.18343047713896,-78.11152592648422A140,140 0 0,0 -123.79128467130246,-65.3889733779982Z" style="fill: rgb(0, 159, 198);"/><text x="175" fill-opacity="0.8" font-size="14" style="text-anchor: middle;" transform="rotate(210.8786533168994)">473</text></g><g><path d="M-154.5602890543636,-142.16580829240053A210.00000000000003,210.00000000000003 0 0,1 -149.20593065031176,-147.77547245322674L-99.47062043354116,-98.51698163548447A140,140 0 0,0 -103.04019270290905,-94.77720552826702Z" style="fill: rgb(0, 167, 164);"/><text x="175" fill-opacity="0.8" font-size="14" style="text-anchor: middle;" transform="rotate(223.66606446384253)">474</text></g><g><path d="M-206.0803854058181,-189.55441105653404A280,280 0 0,1 -198.9412408670823,-197.03396327096894L-149.20593065031176,-147.77547245322674A210.00000000000003,210.00000000000003 0 0,0 -154.5602890543636,-142.16580829240053Z" style="fill: rgb(0, 143, 140);"/><text x="245.00000000000003" fill-opacity="0.8" font-size="14" style="text-anchor: middle;" transform="rotate(223.66606446384253)">4743</text></g><g><path d="M-198.65948245138213,-68.0765013213004A210.00000000000003,210.00000000000003 0 0,1 -185.6869270069537,-98.0834600669973L-123.79128467130246,-65.3889733779982A140,140 0 0,0 -132.43965496758807,-45.38433421420026Z" style="fill: rgb(0, 163, 186);"/><text x="175" fill-opacity="0.8" font-size="14" style="text-anchor: middle;" transform="rotate(203.3797085788576)">475</text></g><g><path d="M-247.73347411616055,-130.4918610578361A280,280 0 0,1 -247.58256934260493,-130.7779467559964L-185.6869270069537,-98.0834600669973A210.00000000000003,210.00000000000003 0 0,0 -185.80010558712044,-97.8688957933771Z" style="fill: rgb(0, 140, 162);"/><text x="245.00000000000003" fill-opacity="0.8" font-size="14" style="text-anchor: middle;" transform="rotate(207.81079575193743)">4751</text></g><g><path d="M-257.2054103133224,-110.6588311232116A280,280 0 0,1 -249.09932897199297,-127.86525840001588L-186.82449672899475,-95.89894380001192A210.00000000000003,210.00000000000003 0 0,0 -192.90405773499182,-82.99412334240871Z" style="fill: rgb(0, 139, 164);"/><text x="245.00000000000003" fill-opacity="0.8" font-size="14" style="text-anchor: middle;" transform="rotate(205.22548837523425)">4752</text></g><g><path d="M-249.09932897199297,-127.86525840001588A280,280 0 0,1 -248.21475786625734,-129.5740482403604L-186.16106839969302,-97.18053618027032A210.00000000000003,210.00000000000003 0 0,0 -186.82449672899475,-95.89894380001192Z" style="fill: rgb(0, 140, 162);"/><text x="245.00000000000003" fill-opacity="0.8" font-size="14" style="text-anchor: middle;" transform="rotate(207.3687676228747)">4753</text></g><g><path d="M-248.21475786625734,-129.5740482403604A280,280 0 0,1 -247.73347411616055,-130.4918610578361L-185.80010558712044,-97.8688957933771A210.00000000000003,210.00000000000003 0 0,0 -186.16106839969302,-97.18053618027032Z" style="fill: rgb(0, 139, 165);"/><text x="245.00000000000003" fill-opacity="0.8" font-size="14" style="text-anchor: middle;" transform="rotate(207.6716700153646)">4754</text></g><g><path d="M-264.87930993517614,-90.76866842840052A280,280 0 0,1 -257.2054103133224,-110.6588311232116L-192.90405773499182,-82.99412334240871A210.00000000000003,210.00000000000003 0 0,0 -198.65948245138213,-68.0765013213004Z" style="fill: rgb(0, 139, 163);"/><text x="245.00000000000003" fill-opacity="0.8" font-size="14" style="text-anchor: middle;" transform="rotate(201.0973035946443)">4759</text></g><g><path d="M-160.19629080214563,-135.78346148642112A210.00000000000003,210.00000000000003 0 0,1 -154.5602890543636,-142.16580829240053L-103.04019270290905,-94.77720552826702A140,140 0 0,0 -106.7975272014304,-90.52230765761406Z" style="fill: rgb(0, 156, 203);"/><text x="175" fill-opacity="0.8" font-size="14" style="text-anchor: middle;" transform="rotate(221.44646867138297)">476</text></g><g><path d="M-213.5950544028608,-181.04461531522813A280,280 0 0,1 -208.02444731016593,-187.41886063387537L-156.01833548262448,-140.56414547540655A210.00000000000003,210.00000000000003 0 0,0 -160.19629080214563,-135.78346148642112Z" style="fill: rgb(0, 132, 182);"/><text x="245.00000000000003" fill-opacity="0.8" font-size="14" style="text-anchor: middle;" transform="rotate(221.150995323079)">4764</text></g><g><path d="M-208.02444731016593,-187.41886063387537A280,280 0 0,1 -206.0803854058181,-189.55441105653404L-154.5602890543636,-142.16580829240053A210.00000000000003,210.00000000000003 0 0,0 -156.01833548262448,-140.56414547540655Z" style="fill: rgb(0, 132, 180);"/><text x="245.00000000000003" fill-opacity="0.8" font-size="14" style="text-anchor: middle;" transform="rotate(222.3126276866969)">4765</text></g><g><path d="M-209.81474277987417,-8.818940538139938A210.00000000000003,210.00000000000003 0 0,1 -198.65948245138213,-68.0765013213004L-132.43965496758807,-45.38433421420026A140,140 0 0,0 -139.87649518658276,-5.879293692093292Z" style="fill: rgb(0, 166, 172);"/><text x="175" fill-opacity="0.8" font-size="14" style="text-anchor: middle;" transform="rotate(190.66118493254766)">477</text></g><g><path d="M-279.7529903731655,-11.758587384186583A280,280 0 0,1 -276.65234115100054,-43.16806847277751L-207.48925586325043,-32.37605135458314A210.00000000000003,210.00000000000003 0 0,0 -209.81474277987417,-8.818940538139938Z" style="fill: rgb(0, 142, 147);"/><text x="245.00000000000003" fill-opacity="0.8" font-size="14" style="text-anchor: middle;" transform="rotate(185.63780032755332)">4771</text></g><g><path d="M-268.67613646500007,-78.82343366182843A280,280 0 0,1 -266.477185979377,-85.96458196555439L-199.85788948453276,-64.4734364741658A210.00000000000003,210.00000000000003 0 0,0 -201.50710234875007,-59.11757524637133Z" style="fill: rgb(0, 142, 149);"/><text x="245.00000000000003" fill-opacity="0.8" font-size="14" style="text-anchor: middle;" transform="rotate(197.11499822715993)">4772</text></g><g><path d="M-276.65234115100054,-43.16806847277751A280,280 0 0,1 -273.60965802321545,-59.47903022426564L-205.2072435174116,-44.60927266819924A210.00000000000003,210.00000000000003 0 0,0 -207.48925586325043,-32.37605135458314Z" style="fill: rgb(0, 142, 147);"/><text x="245.00000000000003" fill-opacity="0.8" font-size="14" style="text-anchor: middle;" transform="rotate(190.56663346109033)">4773</text></g><g><path d="M-273.60965802321545,-59.47903022426564A280,280 0 0,1 -270.94533918005374,-70.63018601565233L-203.20900438504032,-52.97263951173925A210.00000000000003,210.00000000000003 0 0,0 -205.2072435174116,-44.60927266819924Z" style="fill: rgb(0, 142, 149);"/><text x="245.00000000000003" fill-opacity="0.8" font-size="14" style="text-anchor: middle;" transform="rotate(193.4376213551252)">4774</text></g><g><path d="M-265.55651861915584,-88.76787379944355A280,280 0 0,1 -264.879309935176,-90.76866842840076L-198.65948245138205,-68.07650132130057A210.00000000000003,210.00000000000003 0 0,0 -199.1673889643669,-66.57590534958267Z" style="fill: rgb(0, 142, 148);"/><text x="245.00000000000003" fill-opacity="0.8" font-size="14" style="text-anchor: middle;" transform="rotate(198.69941074172255)">4775</text></g><g><path d="M-270.94533918005374,-70.63018601565233A280,280 0 0,1 -268.67613646500007,-78.82343366182843L-201.50710234875007,-59.11757524637133A210.00000000000003,210.00000000000003 0 0,0 -203.20900438504032,-52.97263951173925Z" style="fill: rgb(0, 142, 150);"/><text x="245.00000000000003" fill-opacity="0.8" font-size="14" style="text-anchor: middle;" transform="rotate(195.48060850625563)">4776</text></g><g><path d="M-266.477185979377,-85.96458196555439A280,280 0 0,1 -265.55651861915584,-88.76787379944355L-199.1673889643669,-66.57590534958267A210.00000000000003,210.00000000000003 0 0,0 -199.85788948453276,-64.4734364741658Z" style="fill: rgb(0, 142, 148);"/><text x="245.00000000000003" fill-opacity="0.8" font-size="14" style="text-anchor: middle;" transform="rotate(198.1814037516673)">4777</text></g><g><path d="M-149.20593065031176,-147.77547245322674A210.00000000000003,210.00000000000003 0 0,1 -147.06370695283357,-149.90752515231213L-98.04247130188904,-99.93835010154142A140,140 0 0,0 -99.47062043354116,-98.51698163548447Z" style="fill: rgb(0, 161, 192);"/><text x="175" fill-opacity="0.8" font-size="14" style="text-anchor: middle;" transform="rotate(225.1363398450031)">478</text></g><g><path d="M-166.1716203750851,-128.4016844979793A210.00000000000003,210.00000000000003 0 0,1 -160.19629080214563,-135.78346148642112L-106.7975272014304,-90.52230765761406A140,140 0 0,0 -110.78108025005672,-85.60112299865285Z" style="fill: rgb(53, 153, 207);"/><text x="175" fill-opacity="0.8" font-size="14" style="text-anchor: middle;" transform="rotate(218.98914346497372)">479</text></g><g><path d="M-221.56216050011344,-171.2022459973057A280,280 0 0,1 -213.5950544028608,-181.04461531522813L-160.19629080214563,-135.78346148642112A210.00000000000003,210.00000000000003 0 0,0 -166.1716203750851,-128.4016844979793Z" style="fill: rgb(0, 129, 185);"/><text x="245.00000000000003" fill-opacity="0.8" font-size="14" style="text-anchor: middle;" transform="rotate(218.98914346497372)">4791</text></g></g></svg>