<?xml version="1.0" encoding="UTF-8" standalone="no"?>
<svg
   xmlns:dc="http://purl.org/dc/elements/1.1/"
   xmlns:cc="http://creativecommons.org/ns#"
   xmlns:rdf="http://www.w3.org/1999/02/22-rdf-syntax-ns#"
   xmlns:svg="http://www.w3.org/2000/svg"
   xmlns="http://www.w3.org/2000/svg"
   xmlns:sodipodi="http://sodipodi.sourceforge.net/DTD/sodipodi-0.dtd"
   xmlns:inkscape="http://www.inkscape.org/namespaces/inkscape"
   height="700"
   width="960"
   id="svg2"
   version="1.1"
   inkscape:version="0.48.4 r9939"
   sodipodi:docname="sunburst.svg">
  <metadata
     id="metadata388">
    <rdf:RDF>
      <cc:Work
         rdf:about="">
        <dc:format>image/svg+xml</dc:format>
        <dc:type
           rdf:resource="http://purl.org/dc/dcmitype/StillImage" />
      </cc:Work>
    </rdf:RDF>
  </metadata>
  <defs
     id="defs386" />
  <sodipodi:namedview
     pagecolor="#ffffff"
     bordercolor="#666666"
     borderopacity="1"
     objecttolerance="10"
     gridtolerance="10"
     guidetolerance="10"
     inkscape:pageopacity="0"
     inkscape:pageshadow="2"
     inkscape:window-width="1920"
     inkscape:window-height="1027"
     id="namedview384"
     showgrid="false"
     inkscape:zoom="0.84263558"
     inkscape:cx="242.56662"
     inkscape:cy="392.4914"
     inkscape:window-x="-8"
     inkscape:window-y="-8"
     inkscape:window-maximized="1"
     inkscape:current-layer="svg2" />
  <path
     d="m 480,430 a 70,70 0 1 1 0,-140 70,70 0 0 1 0,140 z"
     id="path8"
     inkscape:connector-curvature="0"
     style="fill:#c5c5c5;fill-opacity:1" />
  <text
     style="font-size:40px;text-anchor:middle;fill-opacity:0.8"
     font-size="40"
     dy="3.7614158e-039"
     x="480"
     id="text10"
     y="372">G</text>
  <path
     style="fill:#cca65a"
     d="M 381.95753,260.06165 A 140,140 0 0 1 480,220 l 0,70 a 70,70 0 0 0 -49.02124,20.03082 z"
     id="path14"
     inkscape:connector-curvature="0" />
  <text
     transform="matrix(0.37825563,0.92570118,-0.92570118,0.37825563,0,0)"
     style="font-size:32px;text-anchor:middle;fill-opacity:0.8"
     font-size="32"
     dy="3.7614158e-039"
     x="410.67841"
     id="text16"
     y="-285.58197">45</text>
  <path
     style="fill:#c4814f"
     d="m 332.93629,210.09247 a 210,210 0 0 1 111.64324,-57.08375 l 11.80682,68.99709 a 140,140 0 0 0 -74.42882,38.05584 z"
     id="path20"
     inkscape:connector-curvature="0" />
  <text
     transform="matrix(0.455248,0.89036468,-0.89036468,0.455248,0,0)"
     style="font-size:26px;text-anchor:middle;fill-opacity:0.8"
     font-size="26"
     dy="3.7614158e-039"
     x="368.47552"
     id="text22"
     y="-244.81407">451</text>
  <path
     style="fill:#ad662a"
     d="m 283.91506,160.1233 a 280,280 0 0 1 132.3585,-72.77498 l 15.93161,68.16292 a 210,210 0 0 0 -99.26888,54.58123 z"
     id="path26"
     inkscape:connector-curvature="0" />
  <text
     transform="matrix(0.48180594,0.87627794,-0.87627794,0.48180594,0,0)"
     style="font-size:20px;text-anchor:middle;fill-opacity:0.8"
     font-size="20"
     dy="3.7614158e-039"
     x="305.12991"
     id="text28"
     y="-232.80186">4511</text>
  <path
     style="fill:#944b00"
     d="m 351.26988,34.53333 a 350,350 0 0 1 49.07207,-15.34794 l 15.93161,68.16293 A 280,280 0 0 0 377.0159,99.62666 z"
     id="path32"
     inkscape:connector-curvature="0" />
  <text
     transform="matrix(0.29850371,0.95440847,-0.95440847,0.29850371,0,0)"
     style="font-size:20px;text-anchor:middle;fill-opacity:0.8"
     font-size="20"
     dy="3.7614158e-039"
     x="175.27988"
     id="text34"
     y="-336.28494">45111</text>
  <path
     style="fill:#934c00"
     d="M 234.89382,110.15412 A 350,350 0 0 1 351.26988,34.53333 l 25.74602,65.09333 a 280,280 0 0 0 -93.10084,60.49664 z"
     id="path38"
     inkscape:connector-curvature="0" />
  <text
     transform="matrix(0.54486861,0.83852143,-0.83852143,0.54486861,0,0)"
     style="font-size:20px;text-anchor:middle;fill-opacity:0.8"
     font-size="20"
     dy="3.7614158e-039"
     x="249.18843"
     id="text40"
     y="-191.97998">45112</text>
  <path
     style="fill:#aa671e"
     d="m 416.27356,87.34832 a 280,280 0 0 1 16.49914,-3.33669 l 11.80683,68.99709 a 210,210 0 0 0 -12.37436,2.50252 z"
     id="path44"
     inkscape:connector-curvature="0" />
  <text
     transform="matrix(0.19822124,0.9801573,-0.9801573,0.19822124,0,0)"
     style="font-size:20px;text-anchor:middle;fill-opacity:0.8"
     font-size="20"
     dy="3.7614158e-039"
     x="201.2439"
     id="text46"
     y="-393.38696">4519</text>
  <path
     style="fill:#ab8e1d"
     d="m 467.72431,150.3591 a 210,210 0 0 1 6.99137,-0.2926 l 1.76144,69.97783 a 140,140 0 0 0 -4.66092,0.19507 z"
     id="path50"
     inkscape:connector-curvature="0" />
  <path
     style="fill:#b98837"
     d="m 444.57953,153.00872 a 210,210 0 0 1 23.14478,-2.64962 l 4.09189,69.8803 a 140,140 0 0 0 -15.42985,1.76641 z"
     id="path56"
     inkscape:connector-curvature="0" />
  <text
     transform="matrix(0.11373739,0.99351085,-0.99351085,0.11373739,0,0)"
     style="font-size:26px;text-anchor:middle;fill-opacity:0.8"
     font-size="26"
     dy="3.7614158e-039"
     x="239.21263"
     id="text58"
     y="-427.19266">453</text>
  <path
     style="fill:#9a940c"
     d="M 474.71568,150.0665 A 210,210 0 0 1 480,150 l 0,70 a 140,140 0 0 0 -3.52288,0.0443 z"
     id="path62"
     inkscape:connector-curvature="0" />
  <g
     id="g66"
     transform="translate(480,360)">
    <path
       inkscape:connector-curvature="0"
       id="path68"
       d="M 0,-140 A 140,140 0 1 1 -131.10669,49.102313 L -65.553343,24.551156 A 70,70 0 1 0 0,-70 z"
       style="fill:#d494e1" />
    <text
       id="text70"
       x="105"
       dy="3.7614158e-039"
       font-size="32"
       style="font-size:32px;text-anchor:middle;fill-opacity:0.8"
       transform="matrix(0.82180618,0.56976714,-0.56976714,0.82180618,0,0)">46</text>
  </g>
  <path
     style="fill:#d16fb4"
     d="m 344.4721,520.41256 a 210,210 0 0 1 -57.52016,-77.75395 l 64.34935,-27.55287 a 140,140 0 0 0 38.34678,51.83597 z"
     id="path74"
     inkscape:connector-curvature="0" />
  <text
     transform="matrix(0.80392969,-0.59472436,0.59472436,0.80392969,0,0)"
     style="font-size:26px;text-anchor:middle;fill-opacity:0.8"
     font-size="26"
     dy="3.7614158e-039"
     x="-2.1972282"
     id="text76"
     y="593.54297">462</text>
  <path
     style="fill:#ba4e9e"
     d="M 299.29614,573.88341 A 280,280 0 0 1 236.76389,498.6946 l 60.80902,-34.67365 a 210,210 0 0 0 46.89919,56.39161 z"
     id="path80"
     inkscape:connector-curvature="0" />
  <text
     transform="matrix(0.76884998,-0.6394292,0.6394292,0.76884998,0,0)"
     style="font-size:20px;text-anchor:middle;fill-opacity:0.8"
     font-size="20"
     dy="3.7614158e-039"
     x="-102.7476"
     id="text82"
     y="598.06311">4621</text>
  <path
     style="fill:#bb4e9b"
     d="m 236.76389,498.6946 a 280,280 0 0 1 -14.16131,-28.48312 l 64.34936,-27.55287 a 210,210 0 0 0 10.62097,21.36234 z"
     id="path86"
     inkscape:connector-curvature="0" />
  <text
     transform="matrix(0.89543418,-0.44519393,0.44519393,0.89543418,0,0)"
     style="font-size:20px;text-anchor:middle;fill-opacity:0.8"
     font-size="20"
     dy="3.7614158e-039"
     x="26.206074"
     id="text88"
     y="544.14972">4622</text>
  <g
     id="g90"
     transform="translate(480,360)">
    <path
       inkscape:connector-curvature="0"
       id="path92"
       d="m 65.292123,199.59193 a 210,210 0 0 1 -111.437917,5.27526 l 15.381931,-68.28906 a 140,140 0 0 0 74.291945,-3.51684 z"
       style="fill:#b37ad0" />
    <text
       id="text94"
       x="175"
       dy="3.7614158e-039"
       font-size="26"
       style="font-size:26px;text-anchor:middle;fill-opacity:0.8"
       transform="matrix(0.04728515,0.99888143,-0.99888143,0.04728515,0,0)">463</text>
  </g>
  <path
     style="fill:#9f5bba"
     d="m 513.08399,638.03858 a 280,280 0 0 1 -44.75931,1.7179 l 2.91883,-69.93912 a 210,210 0 0 0 33.56948,-1.28843 z"
     id="path98"
     inkscape:connector-curvature="0" />
  <text
     transform="matrix(0.03835265,0.99926427,-0.99926427,0.03835265,0,0)"
     style="font-size:20px;text-anchor:middle;fill-opacity:0.8"
     font-size="20"
     dy="3.7614158e-039"
     x="622.91425"
     id="text100"
     y="-459.8443">4631</text>
  <path
     style="fill:#9c5cbb"
     d="m 437.68407,636.78396 a 280,280 0 0 1 -19.2118,-3.62771 l 15.38194,-68.28906 a 210,210 0 0 0 14.40884,2.72078 z"
     id="path104"
     inkscape:connector-curvature="0" />
  <text
     transform="matrix(-0.18554821,0.98263516,-0.98263516,-0.18554821,0,0)"
     style="font-size:20px;text-anchor:middle;fill-opacity:0.8"
     font-size="20"
     dy="3.7614158e-039"
     x="511.16989"
     id="text106"
     y="-530.60114">4634</text>
  <path
     style="fill:#9e5cbb"
     d="m 468.32468,639.75648 a 280,280 0 0 1 -30.64061,-2.97252 l 10.57898,-69.19599 a 210,210 0 0 0 22.98046,2.22939 z"
     id="path110"
     inkscape:connector-curvature="0" />
  <text
     transform="matrix(-0.09655896,0.99532727,-0.99532727,-0.09655896,0,0)"
     style="font-size:20px;text-anchor:middle;fill-opacity:0.8"
     font-size="20"
     dy="3.7614158e-039"
     x="557.54889"
     id="text112"
     y="-506.54633">4638</text>
  <g
     id="g114"
     transform="translate(480,360)">
    <path
       inkscape:connector-curvature="0"
       id="path116"
       d="m 87.056164,266.12257 a 280,280 0 0 1 -53.972171,11.91601 l -8.270998,-69.50965 a 210,210 0 0 0 40.479128,-8.937 z"
       style="fill:#9b5dbc" />
    <text
       id="text118"
       x="245"
       dy="3.7614158e-039"
       font-size="20"
       style="font-size:20px;text-anchor:middle;fill-opacity:0.8"
       transform="matrix(0.21558866,0.97648427,-0.97648427,0.21558866,0,0)">4639</text>
  </g>
  <g
     id="g120"
     transform="translate(480,360)">
    <path
       inkscape:connector-curvature="0"
       id="path122"
       d="M 169.38588,124.13067 A 210,210 0 0 1 65.292123,199.59193 L 43.528082,133.06129 A 140,140 0 0 0 112.92392,82.753779 z"
       style="fill:#cc70bc" />
    <text
       id="text124"
       x="175"
       dy="3.7614158e-039"
       font-size="26"
       style="font-size:26px;text-anchor:middle;fill-opacity:0.8"
       transform="matrix(0.58693334,0.80963526,-0.80963526,0.58693334,0,0)">464</text>
  </g>
  <path
     style="fill:#b550a8"
     d="m 605.63968,610.22923 a 280,280 0 0 1 -29.72209,12.82935 L 551.9382,557.29393 a 210,210 0 0 0 22.29156,-9.622 z"
     id="path128"
     inkscape:connector-curvature="0" />
  <text
     transform="matrix(0.39630073,0.91812076,-0.91812076,0.39630073,0,0)"
     style="font-size:20px;text-anchor:middle;fill-opacity:0.8"
     font-size="20"
     dy="3.7614158e-039"
     x="765.20624"
     id="text130"
     y="-291.72836">4642</text>
  <path
     style="fill:#b650a5"
     d="m 637.11686,591.76344 a 280,280 0 0 1 -31.47718,18.46579 l -31.40992,-62.5573 a 210,210 0 0 0 23.60788,-13.84935 z"
     id="path134"
     inkscape:connector-curvature="0" />
  <text
     transform="matrix(0.50599798,0.86253466,-0.86253466,0.50599798,0,0)"
     style="font-size:20px;text-anchor:middle;fill-opacity:0.8"
     font-size="20"
     dy="3.7614158e-039"
     x="797.08051"
     id="text136"
     y="-225.67017">4643</text>
  <g
     id="g138"
     transform="translate(480,360)">
    <path
       inkscape:connector-curvature="0"
       id="path140"
       d="m 225.84784,165.50756 a 280,280 0 0 1 -68.73098,66.25588 l -39.27922,-57.94086 a 210,210 0 0 0 51.54824,-49.69191 z"
       style="fill:#b650a7" />
    <text
       id="text142"
       x="245"
       dy="3.7614158e-039"
       font-size="20"
       style="font-size:20px;text-anchor:middle;fill-opacity:0.8"
       transform="matrix(0.69402471,0.71995118,-0.71995118,0.69402471,0,0)">4646</text>
  </g>
  <path
     style="fill:#b74fa4"
     d="m 575.91759,623.05858 a 280,280 0 0 1 -8.86143,3.06399 l -21.76404,-66.53064 a 210,210 0 0 0 6.64608,-2.298 z"
     id="path146"
     inkscape:connector-curvature="0" />
  <g
     id="g150"
     transform="translate(480,360)">
    <path
       inkscape:connector-curvature="0"
       id="path152"
       d="M 209.48273,-14.730469 A 210,210 0 0 1 169.38588,124.13067 L 112.92392,82.753779 a 140,140 0 0 0 26.73123,-92.574092 z"
       style="fill:#a77fd4" />
    <text
       id="text154"
       x="175"
       dy="3.7614158e-039"
       font-size="26"
       style="font-size:26px;text-anchor:middle;fill-opacity:0.8"
       transform="matrix(0.96074848,0.27742091,-0.27742091,0.96074848,0,0)">465</text>
  </g>
  <g
     id="g156"
     transform="translate(480,360)">
    <path
       inkscape:connector-curvature="0"
       id="path158"
       d="M 279.3103,-19.640626 A 280,280 0 0 1 246.85659,132.14319 L 185.14244,99.107395 a 210,210 0 0 0 24.34029,-113.837864 z"
       style="fill:#9261bf" />
    <text
       id="text160"
       x="245"
       dy="3.7614158e-039"
       font-size="20"
       style="font-size:20px;text-anchor:middle;fill-opacity:0.8"
       transform="matrix(0.97789655,0.20908931,-0.20908931,0.97789655,0,0)">4651</text>
  </g>
  <path
     style="fill:#8e63bf"
     d="m 726.85659,492.14319 a 280,280 0 0 1 -21.00875,33.36437 l -56.46196,-41.37689 a 210,210 0 0 0 15.75656,-25.02328 z"
     id="path164"
     inkscape:connector-curvature="0" />
  <text
     transform="matrix(0.84621506,0.53284151,-0.53284151,0.84621506,0,0)"
     style="font-size:20px;text-anchor:middle;fill-opacity:0.8"
     font-size="20"
     dy="3.7614158e-039"
     x="841.75262"
     id="text166"
     y="54.389717">4652</text>
  <path
     style="fill:#c573c4"
     d="M 433.85421,564.86719 A 210,210 0 0 1 344.4721,520.41256 l 45.17597,-53.47085 a 140,140 0 0 0 59.58807,29.63642 z"
     id="path170"
     inkscape:connector-curvature="0" />
  <text
     transform="matrix(0.44531795,-0.89537251,0.89537251,0.44531795,0,0)"
     style="font-size:26px;text-anchor:middle;fill-opacity:0.8"
     font-size="26"
     dy="3.7614158e-039"
     x="-282.86243"
     id="text172"
     y="608.46527">466</text>
  <g
     id="g174"
     transform="translate(480,360)">
    <path
       inkscape:connector-curvature="0"
       id="path176"
       d="m 0,-210 a 210,210 0 0 1 209.48273,195.269531 l -69.82758,4.910156 A 140,140 0 0 0 0,-140 z"
       style="fill:#9984d6" />
    <text
       id="text178"
       x="175"
       dy="3.7614158e-039"
       font-size="26"
       style="font-size:26px;text-anchor:middle;fill-opacity:0.8"
       transform="matrix(0.68185589,-0.73148653,0.73148653,0.68185589,0,0)">467</text>
  </g>
  <g
     id="g180"
     transform="translate(480,360)">
    <path
       inkscape:connector-curvature="0"
       id="path182"
       d="m 0,-280 a 280,280 0 0 1 230.43433,120.9402 l -57.60858,39.76495 A 210,210 0 0 0 0,-210 z"
       style="fill:#8467c1" />
    <text
       id="text184"
       x="245"
       dy="3.7614158e-039"
       font-size="20"
       style="font-size:20px;text-anchor:middle;fill-opacity:0.8"
       transform="matrix(0.46471996,-0.88545771,0.88545771,0.46471996,0,0)">4671</text>
  </g>
  <path
     style="fill:#7f69c2"
     d="m 750.57453,287.96234 a 280,280 0 0 1 5.64981,26.21065 l -69.05609,11.45675 a 210,210 0 0 0 -4.23735,-19.65799 z"
     id="path188"
     inkscape:connector-curvature="0" />
  <text
     transform="matrix(0.97754769,-0.21071431,0.21071431,0.97754769,0,0)"
     style="font-size:20px;text-anchor:middle;fill-opacity:0.8"
     font-size="20"
     dy="3.7614158e-039"
     x="636.67993"
     id="text190"
     y="460.88046">4672</text>
  <g
     id="g192"
     transform="translate(480,360)">
    <path
       inkscape:connector-curvature="0"
       id="path194"
       d="m 230.43433,-159.0598 a 280,280 0 0 1 26.5344,47.85247 l -64.24218,27.801832 a 210,210 0 0 0 -19.9008,-35.889352 z"
       style="fill:#8267c1" />
    <text
       id="text196"
       x="245"
       dy="3.7614158e-039"
       font-size="20"
       style="font-size:20px;text-anchor:middle;fill-opacity:0.8"
       transform="matrix(0.87454726,-0.48494029,0.48494029,0.87454726,0,0)">4673</text>
  </g>
  <g
     id="g198"
     transform="translate(480,360)">
    <path
       inkscape:connector-curvature="0"
       id="path200"
       d="m 256.96873,-111.20733 a 280,280 0 0 1 13.6058,39.169666 l -67.64363,18.009416 a 210,210 0 0 0 -10.20435,-29.37725 z"
       style="fill:#7d69c2" />
    <text
       id="text202"
       x="245"
       dy="3.7614158e-039"
       font-size="20"
       style="font-size:20px;text-anchor:middle;fill-opacity:0.8"
       transform="matrix(0.94463468,-0.32812395,0.32812395,0.94463468,0,0)">4675</text>
  </g>
  <path
     style="fill:#8168c2"
     d="m 756.22434,314.17299 a 280,280 0 0 1 3.08596,26.18638 l -69.82757,4.91016 a 210,210 0 0 0 -2.31448,-19.63979 z"
     id="path206"
     inkscape:connector-curvature="0" />
  <text
     transform="matrix(0.99312764,-0.11703631,0.11703631,0.99312764,0,0)"
     style="font-size:20px;text-anchor:middle;fill-opacity:0.8"
     font-size="20"
     dy="3.7614158e-039"
     x="678.86597"
     id="text208"
     y="419.66217">4677</text>
  <path
     style="fill:#bd76cb"
     d="m 286.95194,442.65861 a 210,210 0 0 1 -3.61197,-9.00514 l 65.55334,-24.55116 a 140,140 0 0 0 2.40798,6.00343 z"
     id="path212"
     inkscape:connector-curvature="0" />
  <path
     style="fill:#00c1b2"
     d="m 348.89331,409.10231 a 140,140 0 0 1 33.06422,-149.04066 l 49.02123,49.96917 a 70,70 0 0 0 -16.5321,74.52034 z"
     id="path218"
     inkscape:connector-curvature="0" />
  <text
     transform="matrix(0.97626459,0.2165813,-0.2165813,0.97626459,0,0)"
     style="font-size:32px;text-anchor:middle;fill-opacity:0.8"
     font-size="32"
     dy="3.7614158e-039"
     x="442.70154"
     id="text220"
     y="270.38855">47</text>
  <path
     style="fill:#00a774"
     d="m 283.33997,433.65347 a 210,210 0 0 1 -13.15471,-82.47241 l 69.93824,2.93965 a 140,140 0 0 0 8.76981,54.9816 z"
     id="path224"
     inkscape:connector-curvature="0" />
  <text
     transform="matrix(0.98751686,-0.15751332,0.15751332,0.98751686,0,0)"
     style="font-size:26px;text-anchor:middle;fill-opacity:0.8"
     font-size="26"
     dy="3.7614158e-039"
     x="246.74751"
     id="text226"
     y="449.79807">471</text>
  <path
     style="fill:#008e56"
     d="M 217.78663,458.20462 A 280,280 0 0 1 200.0044,358.42981 l 69.9989,0.39255 a 210,210 0 0 0 13.33667,74.83111 z"
     id="path230"
     inkscape:connector-curvature="0" />
  <text
     transform="matrix(0.98448678,-0.17545878,0.17545878,0.98448678,0,0)"
     style="font-size:20px;text-anchor:middle;fill-opacity:0.8"
     font-size="20"
     dy="3.7614158e-039"
     x="167.80609"
     id="text232"
     y="453.00867">4711</text>
  <path
     style="fill:#008e58"
     d="m 200.0044,358.42981 a 280,280 0 0 1 0.24261,-10.1884 l 69.93825,2.93965 a 210,210 0 0 0 -0.18196,7.6413 z"
     id="path236"
     inkscape:connector-curvature="0" />
  <path
     style="fill:#00a890"
     d="m 305.72485,242.83271 a 210,210 0 0 1 8.10353,-11.23439 l 55.39054,42.80056 a 140,140 0 0 0 -5.40235,7.48959 z"
     id="path242"
     inkscape:connector-curvature="0" />
  <path
     style="fill:#00a7a8"
     d="m 294.31307,261.91654 a 210,210 0 0 1 11.41178,-19.08383 l 58.09172,39.05576 a 140,140 0 0 0 -7.60785,12.72256 z"
     id="path248"
     inkscape:connector-curvature="0" />
  <text
     transform="matrix(0.85825618,0.51322153,-0.51322153,0.85825618,0,0)"
     style="font-size:26px;text-anchor:middle;fill-opacity:0.8"
     font-size="26"
     dy="3.7614158e-039"
     x="417.27499"
     id="text250"
     y="72.431564">473</text>
  <path
     style="fill:#00a87d"
     d="m 325.43971,217.83419 a 210,210 0 0 1 5.35436,-5.60966 l 49.73531,49.25849 a 140,140 0 0 0 -3.56957,3.73977 z"
     id="path254"
     inkscape:connector-curvature="0" />
  <path
     style="fill:#008f62"
     d="m 273.91961,170.44559 a 280,280 0 0 1 7.13915,-7.47955 l 49.73531,49.25849 a 210,210 0 0 0 -5.35436,5.60966 z"
     id="path260"
     inkscape:connector-curvature="0" />
  <path
     style="fill:#00a898"
     d="m 281.34052,291.9235 a 210,210 0 0 1 12.97255,-30.00696 l 61.89565,32.69449 a 140,140 0 0 0 -8.64837,20.00464 z"
     id="path266"
     inkscape:connector-curvature="0" />
  <text
     transform="matrix(0.91789522,0.39682284,-0.39682284,0.91789522,0,0)"
     style="font-size:26px;text-anchor:middle;fill-opacity:0.8"
     font-size="26"
     dy="3.7614158e-039"
     x="405.97186"
     id="text268"
     y="150.92812">475</text>
  <path
     style="fill:#00907d"
     d="m 232.26653,229.50814 a 280,280 0 0 1 0.1509,-0.28609 l 61.89564,32.69449 a 210,210 0 0 0 -0.11318,0.21456 z"
     id="path272"
     inkscape:connector-curvature="0" />
  <path
     style="fill:#009080"
     d="m 222.79459,249.34117 a 280,280 0 0 1 8.10608,-17.20643 l 62.27483,31.96632 a 210,210 0 0 0 -6.07956,12.90482 z"
     id="path278"
     inkscape:connector-curvature="0" />
  <text
     transform="matrix(0.90463755,0.42618177,-0.42618177,0.90463755,0,0)"
     style="font-size:20px;text-anchor:middle;fill-opacity:0.8"
     font-size="20"
     dy="3.7614158e-039"
     x="340.03"
     id="text280"
     y="128.19223">4752</text>
  <path
     style="fill:#00907e"
     d="m 230.90067,232.13474 a 280,280 0 0 1 0.88457,-1.70879 l 62.05369,32.39351 a 210,210 0 0 0 -0.66343,1.2816 z"
     id="path284"
     inkscape:connector-curvature="0" />
  <path
     style="fill:#009081"
     d="m 231.78524,230.42595 a 280,280 0 0 1 0.48129,-0.91781 l 61.93336,32.62296 a 210,210 0 0 0 -0.36096,0.68836 z"
     id="path290"
     inkscape:connector-curvature="0" />
  <path
     style="fill:#00907f"
     d="m 215.12069,269.23133 a 280,280 0 0 1 7.6739,-19.89016 l 64.30135,27.66471 a 210,210 0 0 0 -5.75542,14.91762 z"
     id="path296"
     inkscape:connector-curvature="0" />
  <text
     transform="matrix(0.93297048,0.3599529,-0.3599529,0.93297048,0,0)"
     style="font-size:20px;text-anchor:middle;fill-opacity:0.8"
     font-size="20"
     dy="3.7614158e-039"
     x="330.78226"
     id="text298"
     y="171.60567">4759</text>
  <path
     style="fill:#00a6b0"
     d="m 319.80371,224.21654 a 210,210 0 0 1 5.636,-6.38235 l 51.5201,47.3886 a 140,140 0 0 0 -3.75734,4.2549 z"
     id="path302"
     inkscape:connector-curvature="0" />
  <path
     style="fill:#008e99"
     d="m 266.40495,178.95538 a 280,280 0 0 1 5.5706,-6.37424 l 52.00611,46.85471 a 210,210 0 0 0 -4.17795,4.78069 z"
     id="path308"
     inkscape:connector-curvature="0" />
  <path
     style="fill:#008e97"
     d="m 271.97555,172.58114 a 280,280 0 0 1 1.94406,-2.13555 l 51.5201,47.3886 a 210,210 0 0 0 -1.45805,1.60166 z"
     id="path314"
     inkscape:connector-curvature="0" />
  <path
     style="fill:#00a887"
     d="m 270.18526,351.18106 a 210,210 0 0 1 11.15526,-59.25756 l 66.21983,22.69217 a 140,140 0 0 0 -7.43685,39.50504 z"
     id="path320"
     inkscape:connector-curvature="0" />
  <text
     transform="matrix(0.98273835,0.1850009,-0.1850009,0.98273835,0,0)"
     style="font-size:26px;text-anchor:middle;fill-opacity:0.8"
     font-size="26"
     dy="3.7614158e-039"
     x="363.48187"
     id="text322"
     y="279.65747">477</text>
  <path
     style="fill:#008f6a"
     d="m 200.24701,348.24141 a 280,280 0 0 1 3.10065,-31.40948 l 69.16308,10.79202 a 210,210 0 0 0 -2.32548,23.55711 z"
     id="path326"
     inkscape:connector-curvature="0" />
  <text
     transform="matrix(0.9951628,0.09823947,-0.09823947,0.9951628,0,0)"
     style="font-size:20px;text-anchor:middle;fill-opacity:0.8"
     font-size="20"
     dy="3.7614158e-039"
     x="270.87692"
     id="text328"
     y="319.44965">4771</text>
  <path
     style="fill:#00906d"
     d="m 211.32386,281.17657 a 280,280 0 0 1 2.19895,-7.14115 l 66.6193,21.49114 a 210,210 0 0 0 -1.64921,5.35586 z"
     id="path332"
     inkscape:connector-curvature="0" />
  <path
     style="fill:#008f6b"
     d="m 203.34766,316.83193 a 280,280 0 0 1 3.04268,-16.31096 l 68.40242,14.86976 a 210,210 0 0 0 -2.28202,12.23322 z"
     id="path338"
     inkscape:connector-curvature="0" />
  <path
     style="fill:#00906d"
     d="m 206.39034,300.52097 a 280,280 0 0 1 2.66432,-11.15116 l 67.73634,17.65755 a 210,210 0 0 0 -1.99824,8.36337 z"
     id="path344"
     inkscape:connector-curvature="0" />
  <text
     transform="matrix(0.9726235,0.23238659,-0.23238659,0.9726235,0,0)"
     style="font-size:20px;text-anchor:middle;fill-opacity:0.8"
     font-size="20"
     dy="3.7614158e-039"
     x="307.63547"
     id="text346"
     y="258.75104">4774</text>
  <path
     style="fill:#00906b"
     d="m 214.44348,271.23213 a 280,280 0 0 1 0.67721,-2.0008 l 66.21983,22.69217 a 210,210 0 0 0 -0.50791,1.50059 z"
     id="path350"
     inkscape:connector-curvature="0" />
  <path
     style="fill:#00906e"
     d="m 209.05466,289.36981 a 280,280 0 0 1 2.2692,-8.19324 l 67.16904,19.70585 a 210,210 0 0 0 -1.7019,6.14494 z"
     id="path356"
     inkscape:connector-curvature="0" />
  <path
     style="fill:#00906c"
     d="m 213.52281,274.03542 a 280,280 0 0 1 0.92067,-2.80329 l 66.38913,22.19197 a 210,210 0 0 0 -0.6905,2.10246 z"
     id="path362"
     inkscape:connector-curvature="0" />
  <path
     style="fill:#00a8a0"
     d="m 330.79407,212.22453 a 210,210 0 0 1 2.14222,-2.13206 l 49.02124,49.96918 a 140,140 0 0 0 -1.42815,1.42137 z"
     id="path368"
     inkscape:connector-curvature="0" />
  <path
     style="fill:#00a4b7"
     d="m 313.82838,231.59832 a 210,210 0 0 1 5.97533,-7.38178 l 53.39876,45.26115 a 140,140 0 0 0 -3.98355,4.92119 z"
     id="path374"
     inkscape:connector-curvature="0" />
  <path
     style="fill:#008ca0"
     d="m 258.43784,188.79775 a 280,280 0 0 1 7.96711,-9.84237 l 53.39876,45.26116 a 210,210 0 0 0 -5.97533,7.38178 z"
     id="path380"
     inkscape:connector-curvature="0" />
</svg>
