<svg width="960" height="700"><g transform="translate(480,360)"><g><path d="M0,156.52475842498527A156.52475842498527,156.52475842498527 0 1,1 0,-156.52475842498527A156.52475842498527,156.52475842498527 0 1,1 0,156.52475842498527Z" style="fill: rgb(204, 204, 204);"/><text x="0" fill-opacity="0.8" font-size="12" style="text-anchor: middle;">G</text></g><g><path d="M-155.0187583728316,-158.01640596009537A221.35943621178657,221.35943621178657 0 0,1 -4.0663068752674067e-14,-221.35943621178657L-2.8753131658870634e-14,-156.52475842498527A156.52475842498527,156.52475842498527 0 0,0 -109.6148152565481,-111.7344721931098Z" style="fill: rgb(171, 177, 80);"/><text x="191.70289512680816" fill-opacity="0.8" font-size="12" style="text-anchor: middle;" transform="rotate(247.774325898661)">45</text></g><g><path d="M-189.85842928661742,-193.5297827953581A271.1088342345192,271.1088342345192 0 0,1 -45.727633558281596,-267.2245937954804L-37.336456454252875,-218.18796717381022A221.35943621178657,221.35943621178657 0 0,0 -155.0187583728316,-158.01640596009537Z" style="fill: rgb(171, 142, 29);"/><text x="247.48737341529164" fill-opacity="0.8" font-size="12" style="text-anchor: middle;" transform="rotate(242.91910783933002)">451</text></g><g><path d="M-219.2296305130962,-223.4689443862196A313.04951684997053,313.04951684997053 0 0,1 -71.24832358814493,-304.8338504593592L-61.70285820438756,-263.9938584312318A271.1088342345192,271.1088342345192 0 0,0 -189.85842928661742,-193.5297827953581Z" style="fill: rgb(147, 116, 0);"/><text x="292.8310092869265" fill-opacity="0.8" font-size="12" style="text-anchor: middle;" transform="rotate(241.19658263967446)">4511</text></g><g><path d="M-128.73012048492825,-325.4666743000516A350,350 0 0,1 -79.65804741299691,-340.8146057350664L-71.24832358814493,-304.8338504593592A313.04951684997053,313.04951684997053 0 0,0 -115.13972006241508,-291.1062432582796Z" style="fill: rgb(123, 91, 0);"/><text x="332.03915431767985" fill-opacity="0.8" font-size="12" style="text-anchor: middle;" transform="rotate(252.63224542860522)">45111</text></g><g><path d="M-245.1061782547226,-249.84587525385354A350,350 0 0,1 -128.73012048492825,-325.4666743000516L-115.13972006241508,-291.1062432582796A313.04951684997053,313.04951684997053 0 0,0 -219.2296305130962,-223.4689443862196Z" style="fill: rgb(122, 91, 0);"/><text x="332.03915431767985" fill-opacity="0.8" font-size="12" style="text-anchor: middle;" transform="rotate(236.98431458625285)">45112</text></g><g><path d="M-71.24832358814493,-304.8338504593592A313.04951684997053,313.04951684997053 0 0,1 -52.80172308855689,-308.56438232381805L-45.727633558281596,-267.2245937954804A271.1088342345192,271.1088342345192 0 0,0 -61.70285820438756,-263.9938584312318Z" style="fill: rgb(144, 117, 0);"/><text x="292.8310092869265" fill-opacity="0.8" font-size="12" style="text-anchor: middle;" transform="rotate(258.56703868168233)">4519</text></g><g><path d="M-15.847852020081424,-270.64523935652295A271.1088342345192,271.1088342345192 0 0,1 -6.822025363572544,-271.02298789943774L-5.570160384359209,-221.28934297270737A221.35943621178657,221.35943621178657 0 0,0 -12.93971698944504,-220.98091257896706Z" style="fill: rgb(134, 154, 27);"/><text x="247.48737341529164" fill-opacity="0.8" font-size="12" style="text-anchor: middle;" transform="rotate(267.6034578823847)">452</text></g><g><path d="M-45.727633558281596,-267.2245937954804A271.1088342345192,271.1088342345192 0 0,1 -15.847852020081424,-270.64523935652295L-12.93971698944504,-220.98091257896706A221.35943621178657,221.35943621178657 0 0,0 -37.336456454252875,-218.18796717381022Z" style="fill: rgb(154, 148, 12);"/><text x="247.48737341529164" fill-opacity="0.8" font-size="12" style="text-anchor: middle;" transform="rotate(263.46919479291535)">453</text></g><g><path d="M-6.822025363572544,-271.02298789943774A271.1088342345192,271.1088342345192 0 0,1 -5.313879168241981e-13,-271.1088342345192L-4.3387641723326465e-13,-221.35943621178657A221.35943621178657,221.35943621178657 0 0,0 -5.570160384359209,-221.28934297270737Z" style="fill: rgb(109, 158, 52);"/><text x="247.48737341529164" fill-opacity="0.8" font-size="12" style="text-anchor: middle;" transform="rotate(269.27904503013826)">454</text></g><g><path d="M1.3554356250891357e-14,-221.35943621178657A221.35943621178657,221.35943621178657 0 1,1 -207.2978708240522,77.63757306752045L-146.58173018522027,54.89805439090976A156.52475842498527,156.52475842498527 0 1,0 9.584377219623546e-15,-156.52475842498527Z" style="fill: rgb(233, 142, 199);"/><text x="191.70289512680816" fill-opacity="0.8" font-size="12" style="text-anchor: middle;" transform="rotate(34.73398956556974)">46</text></g><g><path d="M-174.9657626783599,207.09172337488485A271.1088342345192,271.1088342345192 0 0,1 -249.22397766647893,106.71180326514214L-203.490525649888,87.12982251062071A221.35943621178657,221.35943621178657 0 0,0 -142.85894700629282,169.08968407402395Z" style="fill: rgb(214, 114, 142);"/><text x="247.48737341529164" fill-opacity="0.8" font-size="12" style="text-anchor: middle;" transform="rotate(143.5070153814983)">462</text></g><g><path d="M-202.03306036263854,239.12892447486655A313.04951684997053,313.04951684997053 0 0,1 -271.94624219027094,155.0652809580226L-235.51235420049014,134.290472554619A271.1088342345192,271.1088342345192 0 0,0 -174.9657626783599,207.09172337488485Z" style="fill: rgb(190, 83, 118);"/><text x="292.8310092869265" fill-opacity="0.8" font-size="12" style="text-anchor: middle;" transform="rotate(140.25073024127508)">4621</text></g><g><path d="M-271.94624219027094,155.0652809580226A313.04951684997053,313.04951684997053 0 0,1 -287.77906118850166,123.22017668168064L-249.22397766647885,106.71180326514236A271.1088342345192,271.1088342345192 0 0,0 -235.51235420049014,134.290472554619Z" style="fill: rgb(190, 84, 115);"/><text x="292.8310092869265" fill-opacity="0.8" font-size="12" style="text-anchor: middle;" transform="rotate(153.56425279011262)">4622</text></g><g><path d="M84.2917682464895,257.6720741676911A271.1088342345192,271.1088342345192 0 0,1 -59.573964477339736,264.48240538162963L-48.6419383080577,215.9489797096414A221.35943621178657,221.35943621178657 0 0,0 68.82394057361094,210.38836755847524Z" style="fill: rgb(206, 111, 184);"/><text x="247.48737341529164" fill-opacity="0.8" font-size="12" style="text-anchor: middle;" transform="rotate(87.28974960744256)">463</text></g><g><path d="M36.98902850153239,310.85657749276083A313.04951684997053,313.04951684997053 0 0,1 -13.053408548204379,312.7772506517596L-11.30458340872194,270.8730447902767A271.1088342345192,271.1088342345192 0 0,0 32.0334383436337,269.2096930422168Z" style="fill: rgb(185, 79, 160);"/><text x="292.8310092869265" fill-opacity="0.8" font-size="12" style="text-anchor: middle;" transform="rotate(87.80201597244499)">4631</text></g><g><path d="M-47.31064418467205,309.4538785454649A313.04951684997053,313.04951684997053 0 0,1 -68.79008885537087,305.3979758860071L-59.57396447733997,264.4824053816296A271.1088342345192,271.1088342345192 0 0,0 -40.972219733332516,267.9949201199969Z" style="fill: rgb(184, 79, 162);"/><text x="292.8310092869265" fill-opacity="0.8" font-size="12" style="text-anchor: middle;" transform="rotate(100.69309605416449)">4634</text></g><g><path d="M-13.053408548204379,312.7772506517596A313.04951684997053,313.04951684997053 0 0,1 -47.31064418467205,309.4538785454649L-40.972219733332516,267.9949201199969A271.1088342345192,271.1088342345192 0 0,0 -11.30458340872194,270.8730447902767Z" style="fill: rgb(185, 79, 161);"/><text x="292.8310092869265" fill-opacity="0.8" font-size="12" style="text-anchor: middle;" transform="rotate(95.54105391122289)">4638</text></g><g><path d="M97.33175017516051,297.53408276673133A313.04951684997053,313.04951684997053 0 0,1 36.98902850153239,310.85657749276083L32.0334383436337,269.2096930422168A271.1088342345192,271.1088342345192 0 0,0 84.2917682464895,257.6720741676911Z" style="fill: rgb(184, 79, 163);"/><text x="292.8310092869265" fill-opacity="0.8" font-size="12" style="text-anchor: middle;" transform="rotate(77.54993499586335)">4639</text></g><g><path d="M218.67623420553443,160.25200339991466A271.1088342345192,271.1088342345192 0 0,1 84.2917682464895,257.6720741676911L68.82394057361094,210.38836755847524A221.35943621178657,221.35943621178657 0 0,0 178.54839755896953,130.84521286284865Z" style="fill: rgb(214, 112, 154);"/><text x="247.48737341529164" fill-opacity="0.8" font-size="12" style="text-anchor: middle;" transform="rotate(54.06031033143667)">464</text></g><g><path d="M140.46943598751628,279.7647896954673A313.04951684997053,313.04951684997053 0 0,1 107.2391302556919,294.1084305864127L92.8718110811776,254.7053723550056A271.1088342345192,271.1088342345192 0 0,0 121.65010002046115,242.28341496068566Z" style="fill: rgb(191, 80, 131);"/><text x="292.8310092869265" fill-opacity="0.8" font-size="12" style="text-anchor: middle;" transform="rotate(66.65287791041249)">4642</text></g><g><path d="M175.66198824990994,259.1194046845749A313.04951684997053,313.04951684997053 0 0,1 140.46943598751628,279.7647896954673L121.65010002046115,242.28341496068566A271.1088342345192,271.1088342345192 0 0,0 152.12774430370558,224.40398707034237Z" style="fill: rgb(191, 81, 128);"/><text x="292.8310092869265" fill-opacity="0.8" font-size="12" style="text-anchor: middle;" transform="rotate(59.6023772941395)">4643</text></g><g><path d="M252.50556536787786,185.04307460223507A313.04951684997053,313.04951684997053 0 0,1 175.66198824990994,259.1194046845749L152.12774430370558,224.40398707034237A271.1088342345192,271.1088342345192 0 0,0 218.67623420553443,160.25200339991466Z" style="fill: rgb(191, 80, 130);"/><text x="292.8310092869265" fill-opacity="0.8" font-size="12" style="text-anchor: middle;" transform="rotate(46.050449963698995)">4646</text></g><g><path d="M107.2391302556919,294.1084305864127A313.04951684997053,313.04951684997053 0 0,1 97.33175017516038,297.5340827667314L84.29176824648938,257.67207416769116A271.1088342345192,271.1088342345192 0 0,0 92.8718110811776,254.7053723550056Z" style="fill: rgb(190, 81, 127);"/><text x="292.8310092869265" fill-opacity="0.8" font-size="12" style="text-anchor: middle;" transform="rotate(70.92626673645468)">4647</text></g><g><path d="M270.441038766448,-19.01695430200501A271.1088342345192,271.1088342345192 0 0,1 218.67623420553443,160.25200339991466L178.54839755896953,130.84521286284865A221.35943621178657,221.35943621178657 0 0,0 220.81418349534744,-15.527278167245903Z" style="fill: rgb(201, 113, 192);"/><text x="247.48737341529164" fill-opacity="0.8" font-size="12" style="text-anchor: middle;" transform="rotate(16.106336637006766)">465</text></g><g><path d="M312.2784130634615,-21.958887370858807A313.04951684997053,313.04951684997053 0 0,1 275.9940587683222,147.74058184733096L239.01786618694234,127.94709704968271A271.1088342345192,271.1088342345192 0 0,0 270.441038766448,-19.01695430200501Z" style="fill: rgb(180, 81, 169);"/><text x="292.8310092869265" fill-opacity="0.8" font-size="12" style="text-anchor: middle;" transform="rotate(12.068988805781142)">4651</text></g><g><path d="M275.9940587683222,147.74058184733096A313.04951684997053,313.04951684997053 0 0,1 252.50556536787786,185.04307460223507L218.67623420553443,160.25200339991466A271.1088342345192,271.1088342345192 0 0,0 239.01786618694234,127.94709704968271Z" style="fill: rgb(178, 82, 171);"/><text x="292.8310092869265" fill-opacity="0.8" font-size="12" style="text-anchor: middle;" transform="rotate(32.19764634372838)">4652</text></g><g><path d="M-59.573964477339736,264.48240538162963A271.1088342345192,271.1088342345192 0 0,1 -174.9657626783599,207.09172337488485L-142.85894700629282,169.08968407402395A221.35943621178657,221.35943621178657 0 0,0 -48.6419383080577,215.9489797096414Z" style="fill: rgb(213, 111, 165);"/><text x="247.48737341529164" fill-opacity="0.8" font-size="12" style="text-anchor: middle;" transform="rotate(116.44368277981322)">466</text></g><g><path d="M1.6600628303293716e-14,-271.1088342345192A271.1088342345192,271.1088342345192 0 0,1 270.441038766448,-19.01695430200501L220.81418349534744,-15.527278167245903A221.35943621178657,221.35943621178657 0 0,0 1.3554356250891357e-14,-221.35943621178657Z" style="fill: rgb(194, 116, 199);"/><text x="247.48737341529164" fill-opacity="0.8" font-size="12" style="text-anchor: middle;" transform="rotate(-47.01116045047023)">467</text></g><g><path d="M1.916875443924709e-14,-313.04951684997053A313.04951684997053,313.04951684997053 0 0,1 257.6334116298454,-177.83426332393492L223.1170793350994,-154.00898970181893A271.1088342345192,271.1088342345192 0 0,0 1.6600628303293716e-14,-271.1088342345192Z" style="fill: rgb(173, 84, 177);"/><text x="292.8310092869265" fill-opacity="0.8" font-size="12" style="text-anchor: middle;" transform="rotate(-62.30790011312408)">4671</text></g><g><path d="M302.51151832412467,-80.54055674772026A313.04951684997053,313.04951684997053 0 0,1 308.8281982081138,-51.23615902397403L267.45306505320247,-44.371815307100825A271.1088342345192,271.1088342345192 0 0,0 261.9826598060937,-69.75016817846793Z" style="fill: rgb(171, 85, 179);"/><text x="292.8310092869265" fill-opacity="0.8" font-size="12" style="text-anchor: middle;" transform="rotate(-12.16421564489169)">4672</text></g><g><path d="M257.6334116298454,-177.83426332393492A313.04951684997053,313.04951684997053 0 0,1 287.2997770475481,-124.33357594965705L248.80890542478204,-107.67603531576492A271.1088342345192,271.1088342345192 0 0,0 223.1170793350994,-154.00898970181893Z" style="fill: rgb(173, 84, 177);"/><text x="292.8310092869265" fill-opacity="0.8" font-size="12" style="text-anchor: middle;" transform="rotate(-29.00856028500515)">4673</text></g><g><path d="M287.2997770475481,-124.33357594965705A313.04951684997053,313.04951684997053 0 0,1 302.51151832412467,-80.54055674772026L261.9826598060937,-69.75016817846793A271.1088342345192,271.1088342345192 0 0,0 248.80890542478204,-107.67603531576492Z" style="fill: rgb(170, 86, 179);"/><text x="292.8310092869265" fill-opacity="0.8" font-size="12" style="text-anchor: middle;" transform="rotate(-19.15494622385061)">4675</text></g><g><path d="M308.8281982081138,-51.23615902397403A313.04951684997053,313.04951684997053 0 0,1 312.2784130634615,-21.958887370858807L270.441038766448,-19.01695430200501A271.1088342345192,271.1088342345192 0 0,0 267.45306505320247,-44.371815307100825Z" style="fill: rgb(172, 85, 178);"/><text x="292.8310092869265" fill-opacity="0.8" font-size="12" style="text-anchor: middle;" transform="rotate(-6.721090043392383)">4677</text></g><g><path d="M-249.22397766647893,106.71180326514214A271.1088342345192,271.1088342345192 0 0,1 -253.88700414215404,95.08621944173541L-207.2978708240522,77.63757306752045A221.35943621178657,221.35943621178657 0 0,0 -203.490525649888,87.12982251062071Z" style="fill: rgb(210, 111, 175);"/><text x="247.48737341529164" fill-opacity="0.8" font-size="12" style="text-anchor: middle;" transform="rotate(158.14425853073766)">469</text></g><g><path d="M-207.2978708240522,77.63757306752045A221.35943621178657,221.35943621178657 0 0,1 -155.0187583728316,-158.01640596009537L-109.6148152565481,-111.7344721931098A156.52475842498527,156.52475842498527 0 0,0 -146.58173018522027,54.89805439090976Z" style="fill: rgb(0, 188, 210);"/><text x="191.70289512680816" fill-opacity="0.8" font-size="12" style="text-anchor: middle;" transform="rotate(192.50831546423083)">47</text></g><g><path d="M-253.88700414215404,95.08621944173541A271.1088342345192,271.1088342345192 0 0,1 -270.8696681917485,-11.385203278469817L-221.16415795559027,-9.295979550037744A221.35943621178657,221.35943621178657 0 0,0 -207.2978708240522,77.63757306752045Z" style="fill: rgb(0, 168, 156);"/><text x="247.48737341529164" fill-opacity="0.8" font-size="12" style="text-anchor: middle;" transform="rotate(170.93741030273353)">471</text></g><g><path d="M-293.16346037044053,109.79610878181953A313.04951684997053,313.04951684997053 0 0,1 -313.0445944744118,-1.7555256623200326L-271.1045713322383,-1.5203298205646503A271.1088342345192,271.1088342345192 0 0,0 -253.88700414215404,95.08621944173541Z" style="fill: rgb(0, 144, 130);"/><text x="292.8310092869265" fill-opacity="0.8" font-size="12" style="text-anchor: middle;" transform="rotate(169.89464264609043)">4711</text></g><g><path d="M-313.0445944744118,-1.7555256623200326A313.04951684997053,313.04951684997053 0 0,1 -312.77335169162114,-13.146500355206316L-270.8696681917485,-11.385203278469817A271.1088342345192,271.1088342345192 0 0,0 -271.1045713322383,-1.5203298205646503Z" style="fill: rgb(0, 144, 133);"/><text x="292.8310092869265" fill-opacity="0.8" font-size="12" style="text-anchor: middle;" transform="rotate(181.3640738176845)">4719</text></g><g><path d="M-224.9882456716032,-151.26231953006112A271.1088342345192,271.1088342345192 0 0,1 -214.52663944166852,-165.7658618952176L-175.16026762203742,-135.3472594719828A221.35943621178657,221.35943621178657 0 0,0 -183.7021333397913,-123.50516671949212Z" style="fill: rgb(0, 165, 179);"/><text x="247.48737341529164" fill-opacity="0.8" font-size="12" style="text-anchor: middle;" transform="rotate(215.8034342445168)">472</text></g><g><path d="M-239.72079196878795,-126.62520245929358A271.1088342345192,271.1088342345192 0 0,1 -224.9882456716032,-151.26231953006112L-183.7021333397913,-123.50516671949212A221.35943621178657,221.35943621178657 0 0,0 -195.73120701980207,-103.3890448672943Z" style="fill: rgb(0, 159, 198);"/><text x="247.48737341529164" fill-opacity="0.8" font-size="12" style="text-anchor: middle;" transform="rotate(210.8786533168994)">473</text></g><g><path d="M-199.53647516418488,-183.53526930552783A271.1088342345192,271.1088342345192 0 0,1 -192.62402818801203,-190.77731459642663L-157.27686042003776,-155.76902508655553A221.35943621178657,221.35943621178657 0 0,0 -162.9208497419271,-149.85591986761293Z" style="fill: rgb(0, 167, 164);"/><text x="247.48737341529164" fill-opacity="0.8" font-size="12" style="text-anchor: middle;" transform="rotate(223.66606446384253)">474</text></g><g><path d="M-230.40487529838242,-211.92827427867388A313.04951684997053,313.04951684997053 0 0,1 -222.4230690534776,-220.29066787504166L-192.62402818801203,-190.77731459642663A271.1088342345192,271.1088342345192 0 0,0 -199.53647516418488,-183.53526930552783Z" style="fill: rgb(0, 143, 140);"/><text x="292.8310092869265" fill-opacity="0.8" font-size="12" style="text-anchor: middle;" transform="rotate(223.66606446384253)">4743</text></g><g><path d="M-256.4682890334625,-87.88638529515454A271.1088342345192,271.1088342345192 0 0,1 -239.72079196878795,-126.62520245929358L-195.73120701980207,-103.3890448672943A221.35943621178657,221.35943621178657 0 0,0 -209.40548111220593,-71.75893310359046Z" style="fill: rgb(0, 163, 186);"/><text x="247.48737341529164" fill-opacity="0.8" font-size="12" style="text-anchor: middle;" transform="rotate(203.3797085788576)">475</text></g><g><path d="M-276.9744442129598,-145.89433591788958A313.04951684997053,313.04951684997053 0 0,1 -276.80572754706,-146.214189452128L-239.72079196878795,-126.62520245929358A271.1088342345192,271.1088342345192 0 0,0 -239.866904887499,-126.34820117315286Z" style="fill: rgb(0, 140, 162);"/><text x="292.8310092869265" fill-opacity="0.8" font-size="12" style="text-anchor: middle;" transform="rotate(207.81079575193743)">4751</text></g><g><path d="M-287.56439082065714,-123.72033435108526A313.04951684997053,313.04951684997053 0 0,1 -278.5015163654795,-142.95770487150574L-241.18938816499286,-123.80500408544238A271.1088342345192,271.1088342345192 0 0,0 -249.03806767448575,-107.14495251274438Z" style="fill: rgb(0, 139, 164);"/><text x="292.8310092869265" fill-opacity="0.8" font-size="12" style="text-anchor: middle;" transform="rotate(205.22548837523425)">4752</text></g><g><path d="M-278.5015163654795,-142.95770487150574A313.04951684997053,313.04951684997053 0 0,1 -277.51253580380103,-144.86818999264142L-240.33290587473027,-125.45953273389807A271.1088342345192,271.1088342345192 0 0,0 -241.18938816499286,-123.80500408544238Z" style="fill: rgb(0, 140, 162);"/><text x="292.8310092869265" fill-opacity="0.8" font-size="12" style="text-anchor: middle;" transform="rotate(207.3687676228747)">4753</text></g><g><path d="M-277.51253580380103,-144.86818999264142A313.04951684997053,313.04951684997053 0 0,1 -276.9744442129598,-145.89433591788958L-239.866904887499,-126.34820117315286A271.1088342345192,271.1088342345192 0 0,0 -240.33290587473027,-125.45953273389807Z" style="fill: rgb(0, 139, 165);"/><text x="292.8310092869265" fill-opacity="0.8" font-size="12" style="text-anchor: middle;" transform="rotate(207.6716700153646)">4754</text></g><g><path d="M-296.1440714241446,-101.48245641652127A313.04951684997053,313.04951684997053 0 0,1 -287.56439082065714,-123.72033435108526L-249.03806767448575,-107.14495251274438A271.1088342345192,271.1088342345192 0 0,0 -256.4682890334625,-87.88638529515454Z" style="fill: rgb(0, 139, 163);"/><text x="292.8310092869265" fill-opacity="0.8" font-size="12" style="text-anchor: middle;" transform="rotate(201.0973035946443)">4759</text></g><g><path d="M-206.81252213363678,-175.2956950091017A271.1088342345192,271.1088342345192 0 0,1 -199.53647516418488,-183.53526930552783L-162.9208497419271,-149.85591986761293A221.35943621178657,221.35943621178657 0 0,0 -168.8617172151541,-143.128335626281Z" style="fill: rgb(0, 156, 203);"/><text x="247.48737341529164" fill-opacity="0.8" font-size="12" style="text-anchor: middle;" transform="rotate(221.44646867138297)">476</text></g><g><path d="M-238.80653065128124,-202.41403340257477A313.04951684997053,313.04951684997053 0 0,1 -232.57840258367713,-209.5406563214523L-201.41880500906873,-181.46753150004204A271.1088342345192,271.1088342345192 0 0,0 -206.81252213363678,-175.2956950091017Z" style="fill: rgb(0, 132, 182);"/><text x="292.8310092869265" fill-opacity="0.8" font-size="12" style="text-anchor: middle;" transform="rotate(221.150995323079)">4764</text></g><g><path d="M-232.57840258367713,-209.5406563214523A313.04951684997053,313.04951684997053 0 0,1 -230.40487529838242,-211.92827427867388L-199.53647516418488,-183.53526930552783A271.1088342345192,271.1088342345192 0 0,0 -201.41880500906873,-181.46753150004204Z" style="fill: rgb(0, 132, 180);"/><text x="292.8310092869265" fill-opacity="0.8" font-size="12" style="text-anchor: middle;" transform="rotate(222.3126276866969)">4765</text></g><g><path d="M-270.8696681917485,-11.385203278469817A271.1088342345192,271.1088342345192 0 0,1 -256.4682890334625,-87.88638529515454L-209.40548111220593,-71.75893310359046A221.35943621178657,221.35943621178657 0 0,0 -221.16415795559027,-9.295979550037744Z" style="fill: rgb(0, 166, 172);"/><text x="247.48737341529164" fill-opacity="0.8" font-size="12" style="text-anchor: middle;" transform="rotate(190.66118493254766)">477</text></g><g><path d="M-312.77335169162114,-13.146500355206316A313.04951684997053,313.04951684997053 0 0,1 -309.30672047404977,-48.263367781248014L-267.8674774917795,-41.79730257075219A271.1088342345192,271.1088342345192 0 0,0 -270.8696681917485,-11.385203278469817Z" style="fill: rgb(0, 142, 147);"/><text x="292.8310092869265" fill-opacity="0.8" font-size="12" style="text-anchor: middle;" transform="rotate(185.63780032755332)">4771</text></g><g><path d="M-300.38905253387503,-88.12727794389676A313.04951684997053,313.04951684997053 0 0,1 -297.93055115137037,-96.11132446616604L-258.01542586058594,-83.23484857906864A271.1088342345192,271.1088342345192 0 0,0 -260.14455051307414,-76.32046146578665Z" style="fill: rgb(0, 142, 149);"/><text x="292.8310092869265" fill-opacity="0.8" font-size="12" style="text-anchor: middle;" transform="rotate(197.11499822715993)">4772</text></g><g><path d="M-309.30672047404977,-48.263367781248014A313.04951684997053,313.04951684997053 0 0,1 -305.90489732019023,-66.49957740861126L-264.92141222135496,-57.59032337678711A271.1088342345192,271.1088342345192 0 0,0 -267.8674774917795,-41.79730257075219Z" style="fill: rgb(0, 142, 147);"/><text x="292.8310092869265" fill-opacity="0.8" font-size="12" style="text-anchor: middle;" transform="rotate(190.56663346109033)">4773</text></g><g><path d="M-305.90489732019023,-66.49957740861126A313.04951684997053,313.04951684997053 0 0,1 -302.9260982966686,-78.96694859722682L-262.341696594217,-68.38738354453837A271.1088342345192,271.1088342345192 0 0,0 -264.92141222135496,-57.59032337678711Z" style="fill: rgb(0, 142, 149);"/><text x="292.8310092869265" fill-opacity="0.8" font-size="12" style="text-anchor: middle;" transform="rotate(193.4376213551252)">4774</text></g><g><path d="M-296.9012137503105,-99.24550001683916A313.04951684997053,313.04951684997053 0 0,1 -296.1440714241445,-101.48245641652153L-256.4682890334624,-87.88638529515477A271.1088342345192,271.1088342345192 0 0,0 -257.12399352220257,-85.94912422587164Z" style="fill: rgb(0, 142, 148);"/><text x="292.8310092869265" fill-opacity="0.8" font-size="12" style="text-anchor: middle;" transform="rotate(198.69941074172255)">4775</text></g><g><path d="M-302.9260982966686,-78.96694859722682A313.04951684997053,313.04951684997053 0 0,1 -300.38905253387503,-88.12727794389676L-260.14455051307414,-76.32046146578665A271.1088342345192,271.1088342345192 0 0,0 -262.341696594217,-68.38738354453837Z" style="fill: rgb(0, 142, 150);"/><text x="292.8310092869265" fill-opacity="0.8" font-size="12" style="text-anchor: middle;" transform="rotate(195.48060850625563)">4776</text></g><g><path d="M-297.93055115137037,-96.11132446616604A313.04951684997053,313.04951684997053 0 0,1 -296.9012137503105,-99.24550001683916L-257.12399352220257,-85.94912422587164A271.1088342345192,271.1088342345192 0 0,0 -258.01542586058594,-83.23484857906864Z" style="fill: rgb(0, 142, 148);"/><text x="292.8310092869265" fill-opacity="0.8" font-size="12" style="text-anchor: middle;" transform="rotate(198.1814037516673)">4777</text></g><g><path d="M-192.62402818801203,-190.77731459642663A271.1088342345192,271.1088342345192 0 0,1 -189.85842928661742,-193.5297827953581L-155.0187583728316,-158.01640596009537A221.35943621178657,221.35943621178657 0 0,0 -157.27686042003776,-155.76902508655553Z" style="fill: rgb(0, 161, 192);"/><text x="247.48737341529164" fill-opacity="0.8" font-size="12" style="text-anchor: middle;" transform="rotate(225.1363398450031)">478</text></g><g><path d="M-214.52663944166852,-165.7658618952176A271.1088342345192,271.1088342345192 0 0,1 -206.81252213363678,-175.2956950091017L-168.8617172151541,-143.128335626281A221.35943621178657,221.35943621178657 0 0,0 -175.16026762203742,-135.3472594719828Z" style="fill: rgb(53, 153, 207);"/><text x="247.48737341529164" fill-opacity="0.8" font-size="12" style="text-anchor: middle;" transform="rotate(218.98914346497372)">479</text></g><g><path d="M-247.7140260599862,-191.40992997530842A313.04951684997053,313.04951684997053 0 0,1 -238.80653065128124,-202.41403340257477L-206.81252213363678,-175.2956950091017A271.1088342345192,271.1088342345192 0 0,0 -214.52663944166852,-165.7658618952176Z" style="fill: rgb(0, 129, 185);"/><text x="292.8310092869265" fill-opacity="0.8" font-size="12" style="text-anchor: middle;" transform="rotate(218.98914346497372)">4791</text></g></g></svg>